<svg xmlns="http://www.w3.org/2000/svg" width="16" height="16" viewBox="0 0 4.233 4.233"><path style="stroke-width:3.77953;fill:#3fb68b;fill-opacity:1" d="M0 0v15.998h15.998V0H0zm8 8h7v4.69h-2.506l.633-1.231c.133-.255.2-.531.2-.828 0-.518-.182-.958-.544-1.32a1.78 1.78 0 0 0-1.312-.543c-.513 0-.95.183-1.313.55a1.801 1.801 0 0 0-.543 1.317c0 .33.077.633.23.906.154.273.374.499.66.676l.684-1.219a.4.4 0 0 1-.14-.297c0-.096.035-.18.105-.25a.348.348 0 0 1 .254-.11c.248 0 .371.106.371.317a.528.528 0 0 1-.07.254l-.059.11-1.71 3.21H15V15H8V8z" transform="scale(.26458)"/><path d="M1.385.905q-.394.294-.394.632 0 .434.313.434.111 0 .354-.192.242-.191.475-.191.222 0 .359.116.137.111.137.298 0 .177-.177.374-.177.191-.627.44-.45.242-.571.323-.121.086-.207.207l-.026-.03.03-.06.036-.077L1 3.08Q.92 3.002.784 3.002q-.253 0-.4.263l-.025.03-.03-.03q0-.08.228-.313.233-.237.55-.237.238 0 .415.151l.04.026.07-.04q.339-.177.434-.324.096-.147.096-.308 0-.177-.106-.277-.101-.107-.268-.107-.121 0-.369.192-.242.191-.45.191-.16 0-.277-.126-.117-.13-.117-.308 0-.252.222-.505t.798-.556q.283-.151.394-.318l.016-.02.02.04-.09.12-.087.122q.168.141.273.141.131 0 .278-.1l.02.03q0 .025-.237.238-.233.207-.364.207-.121 0-.434-.278z" style="line-height:1.25;-inkscape-font-specification:Parchment;paint-order:normal;fill:none;fill-opacity:1" font-size="10.583" font-family="Parchment" stroke="#fff" stroke-width=".129" stroke-linecap="square" fill="none"/></svg>