<svg xmlns="http://www.w3.org/2000/svg" width="16" height="16" viewBox="0 0 4.2333333 4.2333333"><g><path fill="#3fb68b" fill-rule="evenodd" d="M0 0h4.233v4.233h-4.233z"/><path d="M1.416.831q-.403.3-.403.646 0 .444.32.444.114 0 .362-.196t.486-.196q.227 0 .367.119.14.114.14.305 0 .181-.181.382-.181.196-.641.45-.46.248-.584.331-.124.088-.212.212l-.026-.031.031-.062.036-.078-.088-.103q-.083-.078-.222-.078-.258 0-.408.269l-.026.031-.031-.031q0-.083.233-.32.238-.243.563-.243.243 0 .424.155l.041.026.072-.041q.346-.181.444-.331.098-.15.098-.315 0-.181-.109-.284-.103-.109-.274-.109-.124 0-.377.196-.248.196-.46.196-.165 0-.284-.129-.119-.134-.119-.315 0-.258.227-.517.227-.258.816-.568.289-.155.403-.326l.016-.021.021.041-.093.124-.088.124q.171.145.279.145.134 0 .284-.103l.021.031q0 .026-.243.243-.238.212-.372.212-.124 0-.444-.284z" style="line-height:1.25;-inkscape-font-specification:Parchment;paint-order:normal" font-size="10.583" font-family="Parchment" stroke="#fff" stroke-width=".132" stroke-linecap="square" fill="none"/><path d="M1.883 3.956l.432-.397.34-.327q.302-.286.4-.495.098-.21.098-.448 0-.267-.111-.422-.108-.156-.318-.156-.152 0-.286.083-.13.079-.13.171 0 .152.165.152.121 0 .194.073.076.07.076.184 0 .143-.098.238t-.241.095q-.178 0-.295-.102-.117-.105-.117-.273 0-.197.133-.356.133-.162.298-.235.168-.073.295-.092l.276-.022q.384 0 .654.171t.27.495q0 .203-.127.362-.124.159-.279.241-.156.079-.479.206-.321.124-.356.181v.013l.181-.01.222-.003h.502q.156 0 .219-.038l.092-.108.051-.137.038-.111h.041l-.203 1.086h-1.937z" style="line-height:1.25;-inkscape-font-specification:Elephant" font-size="3.175" font-family="Elephant"/></g></svg>